<svg id="ico_sns_instagram" xmlns="http://www.w3.org/2000/svg" width="36" height="36" viewBox="0 0 36 36">
  <rect id="長方形_28" data-name="長方形 28" width="36" height="36" fill="none"/>
  <g id="instagram" transform="translate(3.95 3.945)">
    <path id="パス_22" data-name="パス 22" d="M14.058,2.531c3.756,0,4.2.017,5.678.083a7.7,7.7,0,0,1,2.609.483,4.351,4.351,0,0,1,1.614,1.049,4.406,4.406,0,0,1,1.054,1.615A7.736,7.736,0,0,1,25.5,8.37c.066,1.483.083,1.928.083,5.679s-.017,4.2-.083,5.679a7.7,7.7,0,0,1-.483,2.609,4.34,4.34,0,0,1-1.049,1.614A4.41,4.41,0,0,1,22.35,25a7.741,7.741,0,0,1-2.609.483c-1.483.066-1.928.083-5.679.083s-4.2-.017-5.679-.083A7.7,7.7,0,0,1,5.775,25,4.351,4.351,0,0,1,4.16,23.955a4.41,4.41,0,0,1-1.054-1.614,7.741,7.741,0,0,1-.483-2.609c-.066-1.483-.083-1.928-.083-5.679s.017-4.2.083-5.679a7.7,7.7,0,0,1,.483-2.609A4.361,4.361,0,0,1,4.155,4.151,4.406,4.406,0,0,1,5.77,3.1a7.736,7.736,0,0,1,2.609-.483c1.477-.066,1.922-.083,5.679-.083Zm0-2.531C10.241,0,9.764.017,8.265.082a10.262,10.262,0,0,0-3.41.654A6.85,6.85,0,0,0,2.362,2.362,6.883,6.883,0,0,0,.736,4.849a10.3,10.3,0,0,0-.654,3.41C.017,9.764,0,10.241,0,14.058s.017,4.294.083,5.794a10.262,10.262,0,0,0,.654,3.41,6.861,6.861,0,0,0,1.625,2.493,6.871,6.871,0,0,0,2.487,1.62,10.3,10.3,0,0,0,3.41.654c1.5.066,1.977.083,5.794.083s4.295-.017,5.794-.083a10.262,10.262,0,0,0,3.41-.654,7.185,7.185,0,0,0,4.108-4.108,10.3,10.3,0,0,0,.654-3.41c.066-1.5.083-1.977.083-5.794s-.017-4.294-.083-5.794a10.262,10.262,0,0,0-.654-3.41,6.6,6.6,0,0,0-1.609-2.5A6.871,6.871,0,0,0,23.268.741a10.3,10.3,0,0,0-3.41-.654C18.354.016,17.876,0,14.059,0h0Z" fill="#333"/>
    <path id="パス_23" data-name="パス 23" d="M15,7.781A7.222,7.222,0,1,0,22.224,15,7.224,7.224,0,0,0,15,7.781Zm0,11.906A4.684,4.684,0,1,1,19.687,15,4.684,4.684,0,0,1,15,19.687Z" transform="translate(-0.944 -0.944)" fill="#333"/>
    <path id="パス_24" data-name="パス 24" d="M26,7.223A1.686,1.686,0,1,1,24.31,5.537,1.686,1.686,0,0,1,26,7.223Z" transform="translate(-2.746 -0.672)" fill="#333"/>
  </g>
</svg>
