<svg id="ico_sns_spotify" xmlns="http://www.w3.org/2000/svg" width="36" height="36" viewBox="0 0 36 36">
  <rect id="長方形_29" data-name="長方形 29" width="36" height="36" fill="none"/>
  <path id="spotify" d="M14.056,0A14.056,14.056,0,1,0,28.112,14.056,14.1,14.1,0,0,0,14.056,0Zm6.468,20.31a.838.838,0,0,1-1.2.28c-3.3-2.037-7.451-2.46-12.37-1.334a.869.869,0,0,1-.423-1.686c5.342-1.2,9.982-.7,13.633,1.548a.839.839,0,0,1,.357,1.191Zm1.685-3.865a1.057,1.057,0,0,1-1.477.351A18.223,18.223,0,0,0,6.748,15.182a1.066,1.066,0,1,1-.632-2.037,20.539,20.539,0,0,1,15.813,1.9.99.99,0,0,1,.28,1.4Zm.138-3.937C17.85,9.84,10.329,9.554,6.04,10.893a1.289,1.289,0,1,1-.769-2.461c4.991-1.477,13.211-1.2,18.415,1.9a1.362,1.362,0,0,1,.495,1.828,1.485,1.485,0,0,1-1.833.346Z" transform="translate(3.944 3.944)" fill="#333"/>
</svg>
