<svg xmlns="http://www.w3.org/2000/svg" xmlns:xlink="http://www.w3.org/1999/xlink" width="320" height="58" viewBox="0 0 320 58"><defs><linearGradient id="a" x1="0.643" y1="1.279" x2="0.357" y2="-0.279" gradientUnits="objectBoundingBox"><stop offset="0" stop-color="#77edb7"/><stop offset="1" stop-color="#abf4ed"/></linearGradient></defs><g transform="translate(-40.011 -55.696)"><g transform="translate(139.023 55.696)"><g transform="translate(0.018 0)"><g transform="translate(27.33 0.071)"><path d="M480.674,78.757,489.91,58.52l9.252,20.237H502L491.221,55.943H488.74L477.894,78.757h2.781" transform="translate(-477.894 -55.943)" fill="#303332"/></g><g transform="translate(146.141 0.071)"><path d="M892.45,78.757l9.236-20.237,9.252,20.237h2.836L903,55.943h-2.481L889.669,78.757h2.781" transform="translate(-889.669 -55.943)" fill="#303332"/></g><path d="M567.707,78.757h-2.552V58.005h-8.4V55.943h19.354v2.062h-8.4Z" transform="translate(-506.672 -55.872)" fill="#303332"/><path d="M636.841,55.943h2.552v9.893h13.682V55.943h2.552V78.757h-2.552V67.963H639.393V78.757h-2.552Z" transform="translate(-563.651 -55.872)" fill="#303332"/><path d="M723.266,58.005V55.943h15.259v2.062ZM738.572,76.7v2.062H723.266V76.7Zm0-10.457V68.3H723.266V66.238Z" transform="translate(-625.139 -55.872)" fill="#303332"/><path d="M807.366,74.4h.035l8.4-18.458h3.9V78.757h-2.552V58.94h-.071L808,77.623h-1.347L797.583,58.94h-.071V78.757H794.96V55.943h3.9Z" transform="translate(-676.147 -55.872)" fill="#303332"/><path d="M395.59,74.4h.035l8.4-18.458h3.9V78.757h-2.552V58.94H405.3l-9.074,18.683h-1.347L385.807,58.94h-.071V78.757h-2.552V55.943h3.9Z" transform="translate(-383.184 -55.872)" fill="#303332"/><path d="M983.284,78.757h-2.552V58.005h-8.4V55.943h19.354v2.062h-8.4Z" transform="translate(-802.342 -55.872)" fill="#303332"/><path d="M1053.575,78.757h-2.552V55.943h2.552Z" transform="translate(-858.326 -55.872)" fill="#303332"/><path d="M1097.7,74.552a9.276,9.276,0,0,1-3.364,2.882,11.244,11.244,0,0,1-2.428.894,12.111,12.111,0,0,1-2.9.329,13.347,13.347,0,0,1-4.857-.864,11.557,11.557,0,0,1-3.84-2.392,10.848,10.848,0,0,1-2.511-3.626,11.513,11.513,0,0,1-.9-4.6,11.343,11.343,0,0,1,.919-4.6,10.946,10.946,0,0,1,2.543-3.626,11.8,11.8,0,0,1,3.84-2.392,13.121,13.121,0,0,1,4.808-.864,12.568,12.568,0,0,1,2.51.251,12.322,12.322,0,0,1,2.314.706,9.981,9.981,0,0,1,1.969,1.091,6.6,6.6,0,0,1,1.477,1.439l-1.969,1.358a5.678,5.678,0,0,0-.968-1.049,6.652,6.652,0,0,0-1.427-.926,9.342,9.342,0,0,0-1.789-.648,8.423,8.423,0,0,0-2.084-.247,10.173,10.173,0,0,0-4.053.769,9.112,9.112,0,0,0-3.036,2.076,8.961,8.961,0,0,0-1.9,3.03,10.1,10.1,0,0,0-.656,3.63,9.883,9.883,0,0,0,.673,3.63,9,9,0,0,0,4.956,5.106,10.075,10.075,0,0,0,4.021.769,9.581,9.581,0,0,0,3.807-.772,7.108,7.108,0,0,0,3.019-2.469Z" transform="translate(-876.733 -55.696)" fill="#303332"/></g><g transform="translate(0 34.873)"><path d="M636.685,178.314v-2.062h15.258v2.062ZM651.991,197v2.062H636.685V197Zm0-10.457v2.063H636.685v-2.063Z" transform="translate(-563.514 -176.181)" fill="#303332"/><path d="M400.916,195.684h.071V176.252h2.552v22.815h-3.19l-14.6-19.625h-.071v19.625h-2.552V176.252h3.19Z" transform="translate(-383.122 -176.181)" fill="#303332"/><path d="M491.361,187.486a11.737,11.737,0,0,1-.884,4.6,10.952,10.952,0,0,1-2.447,3.626,11.284,11.284,0,0,1-3.693,2.392,12.812,12.812,0,0,1-9.249,0,11.286,11.286,0,0,1-3.693-2.392,10.943,10.943,0,0,1-2.446-3.626,12.4,12.4,0,0,1,0-9.2,10.953,10.953,0,0,1,2.446-3.626,11.294,11.294,0,0,1,3.693-2.392,12.808,12.808,0,0,1,9.249,0,11.292,11.292,0,0,1,3.693,2.392,10.963,10.963,0,0,1,2.447,3.626A11.74,11.74,0,0,1,491.361,187.486Zm-2.4.015a10.5,10.5,0,0,0-.631-3.636,9.05,9.05,0,0,0-1.831-3.034,8.762,8.762,0,0,0-2.92-2.08,10.088,10.088,0,0,0-7.733,0,8.755,8.755,0,0,0-2.92,2.08,9.036,9.036,0,0,0-1.831,3.034,10.789,10.789,0,0,0,0,7.272,8.723,8.723,0,0,0,4.751,5.084,10.095,10.095,0,0,0,7.733,0,8.721,8.721,0,0,0,4.751-5.084A10.5,10.5,0,0,0,488.962,187.5Zm.827-11.376,1.459,1.458-21.55,21.55-1.459-1.458Z" transform="translate(-443.553 -176.006)" fill="#303332"/><path d="M568.383,199.067h-2.552V178.314h-8.4v-2.062h19.354v2.062h-8.4Z" transform="translate(-507.13 -176.181)" fill="#303332"/><path d="M717.625,180.079a5.624,5.624,0,0,0-1.951-1.589,6.314,6.314,0,0,0-2.876-.6,6.557,6.557,0,0,0-1.752.247,5.229,5.229,0,0,0-1.62.756,3.973,3.973,0,0,0-1.174,1.281,3.571,3.571,0,0,0-.446,1.821,3.182,3.182,0,0,0,.428,1.728,3.907,3.907,0,0,0,1.137,1.157,6.765,6.765,0,0,0,1.616.788q.906.308,1.9.617,1.219.37,2.456.8a9.057,9.057,0,0,1,2.226,1.127,5.564,5.564,0,0,1,1.615,1.759,5.261,5.261,0,0,1,.627,2.7,5.669,5.669,0,0,1-.668,2.823,6.035,6.035,0,0,1-1.735,1.96,7.439,7.439,0,0,1-2.439,1.142,10.547,10.547,0,0,1-2.76.37,11.317,11.317,0,0,1-2.116-.2,10.1,10.1,0,0,1-2.016-.6,8.319,8.319,0,0,1-1.785-1.018,7.621,7.621,0,0,1-1.455-1.419l2.05-1.42a6.082,6.082,0,0,0,2.132,1.96,6.365,6.365,0,0,0,3.223.787,6.652,6.652,0,0,0,1.818-.262,5.251,5.251,0,0,0,1.67-.8,4.552,4.552,0,0,0,1.223-1.327,3.877,3.877,0,0,0,0-3.734,4.119,4.119,0,0,0-1.273-1.265,8,8,0,0,0-1.818-.848q-1.025-.34-2.149-.679-1.158-.339-2.281-.771a7.831,7.831,0,0,1-2.017-1.127,5.339,5.339,0,0,1-1.438-1.713,5.885,5.885,0,0,1,.132-5.215,5.863,5.863,0,0,1,1.769-1.882,7.656,7.656,0,0,1,2.413-1.08,10.49,10.49,0,0,1,2.612-.339,9.558,9.558,0,0,1,4.067.787,6.925,6.925,0,0,1,2.546,1.867Z" transform="translate(-611.995 -176.006)" fill="#303332"/></g></g><g transform="translate(40.011 59.862)"><g transform="translate(0 20.58)"><path d="M87.8,156.932l18.389,9.4q.747-.147,1.475-.3l-19-9.29C88.392,156.807,88.1,156.872,87.8,156.932Zm-4.457-16.019c-23.934,0-43.335,6.152-43.335,13.741s19.4,13.74,43.335,13.74a131.177,131.177,0,0,0,13.556-.687L85.991,157.2a25.576,25.576,0,0,1-2.644.134c-4.67,0-8.456-1.2-8.456-2.681s3.786-2.681,8.456-2.681,8.456,1.2,8.456,2.681c0,.74-.945,1.409-2.473,1.894l22.206,8.541c9.271-2.52,15.146-6.26,15.146-10.435C126.682,147.065,107.28,140.913,83.346,140.913Z" transform="translate(-40.011 -140.913)" fill="url(#a)"/></g><line x1="1.246" transform="translate(52.225 11.478)"/><path d="M10.695-.5A24.2,24.2,0,0,1,18.423.629c2.236.785,3.467,1.9,3.467,3.129S20.659,6.1,18.423,6.886a24.2,24.2,0,0,1-7.728,1.129A24.2,24.2,0,0,1,2.967,6.886C.731,6.1-.5,4.99-.5,3.758S.731,1.414,2.967.629A24.2,24.2,0,0,1,10.695-.5Zm0,7.515a23.191,23.191,0,0,0,7.4-1.072c1.752-.616,2.8-1.433,2.8-2.185s-1.046-1.57-2.8-2.185A23.191,23.191,0,0,0,10.695.5,23.191,23.191,0,0,0,3.3,1.572C1.546,2.188.5,3,.5,3.758s1.046,1.57,2.8,2.185A23.191,23.191,0,0,0,10.695,7.015Z" transform="translate(32.64 30.524)" fill="#fff"/><g transform="translate(21.564)"><path d="M126.038,81.482v-.224h-3.946l.268-.9h4.022q1.685-5.381,4.042-7.8a7.3,7.3,0,0,1,5.382-2.432,5.368,5.368,0,0,1,2.835.742,2.254,2.254,0,0,1,1.226,2,1.866,1.866,0,0,1-.536,1.483,2.19,2.19,0,0,1-1.513.466,1.984,1.984,0,0,1-1.437-.466,1.714,1.714,0,0,1-.46-1.259,1.548,1.548,0,0,1,.479-1.087,2.324,2.324,0,0,0,.5-.6q0-.379-1.322-.379-2.777,0-3.888,4.277l-1.321,5.054h3.678l-.268.9h-3.6l-1.647,7.3a32.716,32.716,0,0,1-4,10,7.472,7.472,0,0,1-6.493,3.863,4.019,4.019,0,0,1-2.337-.673,2.1,2.1,0,0,1-.958-1.776,1.557,1.557,0,0,1,.536-1.207,1.922,1.922,0,0,1,1.3-.483,2.216,2.216,0,0,1,1.36.362,1.247,1.247,0,0,1,.479,1.086,1.458,1.458,0,0,1-.23.828,1.105,1.105,0,0,0-.23.517q0,.448.709.448a2.936,2.936,0,0,0,2.471-1.363,16.573,16.573,0,0,0,1.877-5.433Z" transform="translate(-114.737 -70.133)" fill="#303332"/><g transform="translate(17.109 10.142)"><path d="M177.88,128.726a11.251,11.251,0,0,1-3.854-8.981c0-6.385,3.678-11.26,9.3-14.466l.177.265a21.5,21.5,0,0,0-6.944,15.95,14.244,14.244,0,0,0,1.589,7.047Z" transform="translate(-174.026 -105.278)" fill="#303332"/><path d="M204.6,135.637l2.457-2.522a.781.781,0,0,0,.273-.543l-.546-2.367q-.575-2.341-1.034-2.341-.863,0-2.687,2.742l-.646-.22a12.508,12.508,0,0,1,2.27-2.794,3.644,3.644,0,0,1,2.428-.918,2.254,2.254,0,0,1,1.581.491,3.379,3.379,0,0,1,.847,1.785l.259,1.061,1.925-2.147a3.868,3.868,0,0,1,.991-.893,2.084,2.084,0,0,1,1.049-.3,1.583,1.583,0,0,1,1.034.3,1.082,1.082,0,0,1,.373.919,1.11,1.11,0,0,1-.373.815,1.191,1.191,0,0,1-.862.349,1.674,1.674,0,0,1-.934-.272,1.35,1.35,0,0,0-.589-.285q-.445,0-1.422,1.1t-.962,1.41a4.049,4.049,0,0,0,.115.634l.747,3.156q.4,1.63,1.035,1.63.531,0,1.235-.815a9.814,9.814,0,0,0,1.293-1.94l.575.285a8.907,8.907,0,0,1-2.1,2.911,3.786,3.786,0,0,1-2.485.906,2.168,2.168,0,0,1-2.083-1.332,12.384,12.384,0,0,1-.775-3l-2.528,3.066a4.011,4.011,0,0,1-1.035.919,2.241,2.241,0,0,1-1.207.349,1.5,1.5,0,0,1-1.02-.375,1.2,1.2,0,0,1-.416-.906,1.173,1.173,0,0,1,.359-.854,1.253,1.253,0,0,1,.905-.362,1.106,1.106,0,0,1,.847.375q.359.362.489.362a.542.542,0,0,0,.345-.142Q204.5,135.728,204.6,135.637Z" transform="translate(-193.486 -120.499)" fill="#303332"/><path d="M252.949,105.278a11.251,11.251,0,0,1,3.854,8.981c0,6.385-3.678,11.26-9.3,14.466l-.177-.265a21.5,21.5,0,0,0,6.944-15.95,14.247,14.247,0,0,0-1.589-7.047Z" transform="translate(-226.176 -105.278)" fill="#303332"/></g></g></g></g></svg>