<svg xmlns="http://www.w3.org/2000/svg" xmlns:xlink="http://www.w3.org/1999/xlink" width="200" height="162" viewBox="0 0 200 162"><defs><linearGradient id="a" x1="0.643" y1="1.354" x2="0.357" y2="-0.204" gradientUnits="objectBoundingBox"><stop offset="0" stop-color="#77edb7"/><stop offset="1" stop-color="#abf4ed"/></linearGradient></defs><g transform="translate(-40.732 -92.984)"><g transform="translate(59.641 92.984)"><g transform="translate(0 38.249)"><path d="M179.16,222.089l34.41,17.6q1.4-.276,2.76-.568l-35.557-17.4Q180,221.922,179.16,222.089Zm-8.341-30c-44.785,0-81.091,11.52-81.091,25.731s36.306,25.731,81.091,25.731a245.19,245.19,0,0,0,25.366-1.286l-20.418-19.676a47.865,47.865,0,0,1-4.949.252c-8.738,0-15.823-2.248-15.823-5.021s7.084-5.021,15.823-5.021,15.823,2.248,15.823,5.021c0,1.386-1.768,2.639-4.627,3.548l41.553,15.994c17.348-4.719,28.342-11.723,28.342-19.542C251.909,203.612,215.6,192.092,170.819,192.092Z" transform="translate(-89.728 -192.092)" fill="url(#a)"/></g><line x1="2.334" transform="translate(97.724 21.425)"/><path d="M20.028-.5A44.876,44.876,0,0,1,34.355,1.589c4,1.4,6.2,3.339,6.2,5.447s-2.2,4.043-6.2,5.447a44.876,44.876,0,0,1-14.328,2.089A44.876,44.876,0,0,1,5.7,12.484c-4-1.4-6.2-3.339-6.2-5.447S1.7,2.994,5.7,1.589A44.876,44.876,0,0,1,20.028-.5Zm0,14.074a43.867,43.867,0,0,0,14-2.033c3.516-1.235,5.532-2.877,5.532-4.5s-2.016-3.269-5.532-4.5A43.867,43.867,0,0,0,20.028.5a43.867,43.867,0,0,0-14,2.033C2.516,3.768.5,5.41.5,7.037s2.016,3.269,5.532,4.5A43.867,43.867,0,0,0,20.028,13.574Z" transform="translate(61.063 56.943)" fill="#fff"/><g transform="translate(40.314)"><path d="M215.522,114.237v-.42h-7.389l.5-1.68h7.532q3.156-10.077,7.569-14.6a13.675,13.675,0,0,1,10.079-4.554,10.057,10.057,0,0,1,5.309,1.389,4.222,4.222,0,0,1,2.3,3.747,3.494,3.494,0,0,1-1,2.778,4.1,4.1,0,0,1-2.834.872,3.715,3.715,0,0,1-2.69-.872,3.209,3.209,0,0,1-.861-2.358,2.9,2.9,0,0,1,.9-2.035,4.358,4.358,0,0,0,.932-1.13q0-.71-2.475-.711-5.2,0-7.282,8.01l-2.475,9.464h6.887l-.5,1.68h-6.743l-3.085,13.662q-2.8,11.466-7.5,18.733-4.664,7.235-12.16,7.235a7.526,7.526,0,0,1-4.376-1.259,3.939,3.939,0,0,1-1.793-3.327,2.916,2.916,0,0,1,1-2.261,3.6,3.6,0,0,1,2.439-.9,4.15,4.15,0,0,1,2.546.678,2.336,2.336,0,0,1,.9,2.035,2.731,2.731,0,0,1-.431,1.55,2.075,2.075,0,0,0-.43.969q0,.839,1.327.84a5.5,5.5,0,0,0,4.627-2.551q1.83-2.552,3.515-10.174Z" transform="translate(-194.359 -92.984)" fill="#303332"/><g transform="translate(32.04 18.998)"><path d="M284.6,186.112c-4.187-3.473-7.218-9.078-7.218-16.817,0-11.955,6.887-21.084,17.411-27.086l.331.5c-7.548,6.6-13,17.66-13,29.864,0,6,1.322,10.22,2.975,13.2Z" transform="translate(-277.379 -142.209)" fill="#303332"/><path d="M321.706,188.94l4.6-4.723a1.465,1.465,0,0,0,.511-1.018l-1.022-4.433q-1.076-4.384-1.937-4.384-1.614,0-5.031,5.135l-1.211-.412a23.426,23.426,0,0,1,4.251-5.232,6.826,6.826,0,0,1,4.546-1.72,4.221,4.221,0,0,1,2.959.92,6.33,6.33,0,0,1,1.587,3.343l.484,1.986,3.6-4.021a7.238,7.238,0,0,1,1.856-1.672,3.9,3.9,0,0,1,1.964-.557,2.965,2.965,0,0,1,1.937.557,2.025,2.025,0,0,1,.7,1.72,2.08,2.08,0,0,1-.7,1.526,2.233,2.233,0,0,1-1.614.654,3.131,3.131,0,0,1-1.749-.509,2.53,2.53,0,0,0-1.1-.533q-.834,0-2.663,2.059-1.8,2.06-1.8,2.641a7.592,7.592,0,0,0,.215,1.187l1.4,5.911q.753,3.053,1.937,3.052,1,0,2.314-1.526a18.379,18.379,0,0,0,2.421-3.634l1.076.533a16.679,16.679,0,0,1-3.927,5.451,7.092,7.092,0,0,1-4.654,1.7,4.06,4.06,0,0,1-3.9-2.495,23.2,23.2,0,0,1-1.453-5.62l-4.735,5.741a7.5,7.5,0,0,1-1.937,1.72,4.193,4.193,0,0,1-2.26.654,2.816,2.816,0,0,1-1.91-.7,2.25,2.25,0,0,1-.78-1.7,2.2,2.2,0,0,1,.672-1.6,2.345,2.345,0,0,1,1.695-.678,2.072,2.072,0,0,1,1.587.7q.672.678.915.678a1.014,1.014,0,0,0,.646-.266Q321.518,189.11,321.706,188.94Z" transform="translate(-300.898 -160.597)" fill="#303332"/><path d="M390.543,142.209c4.187,3.473,7.217,9.078,7.217,16.817,0,11.955-6.887,21.084-17.41,27.086l-.33-.5c7.548-6.6,13-17.661,13-29.864,0-6-1.322-10.219-2.975-13.2Z" transform="translate(-340.407 -142.209)" fill="#303332"/></g></g></g><g transform="translate(40.732 199.14)"><g transform="translate(24.749 0.064)"><path d="M107.378,389.935l8.364-18.325,8.378,18.325h2.568l-9.758-20.66h-2.247l-9.822,20.66h2.518" transform="translate(-104.86 -369.275)" fill="#303332"/></g><g transform="translate(132.263 0.064)"><path d="M386.192,389.935l8.364-18.325,8.378,18.325H405.5l-9.758-20.66H393.5l-9.822,20.66h2.518" transform="translate(-383.674 -369.275)" fill="#303332"/></g><path d="M168.175,389.935h-2.311V371.143h-7.608v-1.868h17.526v1.868h-7.608Z" transform="translate(-112.929 -369.211)" fill="#303332"/><path d="M212.483,369.275h2.311v8.958h12.39v-8.958H229.5v20.66h-2.311V380.16h-12.39v9.775h-2.311Z" transform="translate(-146.242 -369.211)" fill="#303332"/><path d="M271,371.143v-1.868H284.82v1.868Zm13.861,16.925v1.867H271v-1.867Zm0-9.47v1.868H271V378.6Z" transform="translate(-182.191 -369.211)" fill="#303332"/><path d="M330.781,385.989h.032l7.607-16.714h3.531v20.66H339.64V371.989h-.064l-8.217,16.919h-1.22l-8.217-16.919h-.064v17.946h-2.311v-20.66h3.531Z" transform="translate(-212.015 -369.211)" fill="#303332"/><path d="M51.967,385.989H52l7.607-16.714h3.531v20.66H60.826V371.989h-.064l-8.217,16.919h-1.22l-8.217-16.919h-.064v17.946H40.732v-20.66h3.531Z" transform="translate(-40.732 -369.211)" fill="#303332"/><path d="M449.564,389.935h-2.311V371.143h-7.608v-1.868h17.526v1.868h-7.608Z" transform="translate(-285.812 -369.211)" fill="#303332"/><path d="M495.239,389.935h-2.311v-20.66h2.311Z" transform="translate(-318.531 -369.211)" fill="#303332"/><path d="M529.288,386.183a8.4,8.4,0,0,1-3.046,2.61,10.179,10.179,0,0,1-2.2.809,10.954,10.954,0,0,1-2.63.3,12.092,12.092,0,0,1-4.4-.782,10.469,10.469,0,0,1-3.477-2.166,9.818,9.818,0,0,1-2.274-3.284,10.42,10.42,0,0,1-.817-4.164,10.272,10.272,0,0,1,.832-4.164,9.92,9.92,0,0,1,2.3-3.284,10.69,10.69,0,0,1,3.477-2.165,11.882,11.882,0,0,1,4.354-.783,11.4,11.4,0,0,1,2.274.227,11.174,11.174,0,0,1,2.1.639,9.049,9.049,0,0,1,1.783.988,5.979,5.979,0,0,1,1.337,1.3l-1.783,1.23a5.14,5.14,0,0,0-.877-.95,6.024,6.024,0,0,0-1.292-.838,8.436,8.436,0,0,0-1.62-.587,7.626,7.626,0,0,0-1.887-.224,9.208,9.208,0,0,0-3.67.7,8.251,8.251,0,0,0-2.749,1.88,8.114,8.114,0,0,0-1.724,2.744,9.15,9.15,0,0,0-.594,3.287,8.954,8.954,0,0,0,.609,3.287,8.157,8.157,0,0,0,4.488,4.624,9.123,9.123,0,0,0,3.641.7,8.685,8.685,0,0,0,3.448-.7,6.439,6.439,0,0,0,2.734-2.236Z" transform="translate(-329.288 -369.108)" fill="#303332"/><g transform="translate(50.401 34.901)"><path d="M347.235,461.575v-1.867h13.817v1.867ZM361.1,478.5v1.867H347.235V478.5Zm0-9.47V470.9H347.235V469.03Z" transform="translate(-279.406 -459.643)" fill="#303332"/><path d="M187.6,477.3h.064v-17.6h2.311v20.66h-2.889L173.859,462.6h-.064v17.771h-2.311v-20.66h2.889Z" transform="translate(-171.484 -459.643)" fill="#303332"/><path d="M252.126,469.936a10.621,10.621,0,0,1-.8,4.163,9.917,9.917,0,0,1-2.215,3.284,10.226,10.226,0,0,1-3.344,2.166,11.6,11.6,0,0,1-8.375,0,10.226,10.226,0,0,1-3.344-2.166,9.911,9.911,0,0,1-2.215-3.284,11.23,11.23,0,0,1,0-8.328,9.923,9.923,0,0,1,2.215-3.284,10.23,10.23,0,0,1,3.344-2.166,11.595,11.595,0,0,1,8.375,0,10.23,10.23,0,0,1,3.344,2.166,9.929,9.929,0,0,1,2.215,3.284A10.626,10.626,0,0,1,252.126,469.936Zm-2.172.014a9.515,9.515,0,0,0-.572-3.293,8.2,8.2,0,0,0-1.658-2.747,7.938,7.938,0,0,0-2.644-1.883,9.134,9.134,0,0,0-7,0,7.924,7.924,0,0,0-2.644,1.883,8.185,8.185,0,0,0-1.658,2.747,9.762,9.762,0,0,0,0,6.585,7.9,7.9,0,0,0,4.3,4.6,9.143,9.143,0,0,0,7,0,7.9,7.9,0,0,0,4.3-4.6A9.506,9.506,0,0,0,249.953,469.95Zm.749-10.3,1.321,1.321-19.515,19.515-1.321-1.321Z" transform="translate(-208.049 -459.54)" fill="#303332"/><path d="M303.49,480.367h-2.311V461.575h-7.608v-1.867H311.1v1.867H303.49Z" transform="translate(-246.453 -459.643)" fill="#303332"/><path d="M404.962,463.229a5.093,5.093,0,0,0-1.766-1.439,5.721,5.721,0,0,0-2.6-.545,5.937,5.937,0,0,0-1.587.223,4.756,4.756,0,0,0-1.467.685,3.6,3.6,0,0,0-1.062,1.16,3.232,3.232,0,0,0-.4,1.648,2.885,2.885,0,0,0,.387,1.565,3.535,3.535,0,0,0,1.03,1.048,6.12,6.12,0,0,0,1.463.713q.821.279,1.717.558,1.1.336,2.224.727a8.2,8.2,0,0,1,2.015,1.02,5.047,5.047,0,0,1,1.463,1.593,4.768,4.768,0,0,1,.567,2.445,5.134,5.134,0,0,1-.605,2.557,5.474,5.474,0,0,1-1.572,1.775A6.746,6.746,0,0,1,402.552,480a9.544,9.544,0,0,1-2.5.335,10.286,10.286,0,0,1-1.916-.182,9.155,9.155,0,0,1-1.826-.545,7.536,7.536,0,0,1-1.616-.922,6.912,6.912,0,0,1-1.318-1.286l1.856-1.286a5.5,5.5,0,0,0,1.931,1.775,5.765,5.765,0,0,0,2.919.712,6.028,6.028,0,0,0,1.646-.237,4.759,4.759,0,0,0,1.512-.727,4.118,4.118,0,0,0,1.108-1.2,3.511,3.511,0,0,0,0-3.381,3.733,3.733,0,0,0-1.153-1.146,7.272,7.272,0,0,0-1.647-.768q-.928-.308-1.946-.615-1.048-.307-2.066-.7a7.116,7.116,0,0,1-1.826-1.02,4.842,4.842,0,0,1-1.3-1.551,5.329,5.329,0,0,1,.12-4.723,5.3,5.3,0,0,1,1.6-1.7,6.936,6.936,0,0,1,2.185-.978,9.506,9.506,0,0,1,2.365-.307,8.66,8.66,0,0,1,3.682.712,6.273,6.273,0,0,1,2.305,1.691Z" transform="translate(-307.74 -459.54)" fill="#303332"/></g></g></g></svg>