<svg xmlns="http://www.w3.org/2000/svg" xmlns:xlink="http://www.w3.org/1999/xlink" width="342" height="267.72" viewBox="0 0 342 267.72"><defs><linearGradient id="a" x1="0.643" y1="1.354" x2="0.357" y2="-0.204" gradientUnits="objectBoundingBox"><stop offset="0" stop-color="#77edb7"/><stop offset="1" stop-color="#abf4ed"/></linearGradient><filter id="b" x="38.609" y="150.704" width="64.051" height="62.229" filterUnits="userSpaceOnUse"><feOffset input="SourceAlpha"/><feGaussianBlur stdDeviation="5" result="c"/><feFlood flood-color="#fff" flood-opacity="0.502"/><feComposite operator="in" in2="c"/><feComposite in="SourceGraphic"/></filter><filter id="d" x="206.331" y="150.704" width="64.051" height="62.229" filterUnits="userSpaceOnUse"><feOffset input="SourceAlpha"/><feGaussianBlur stdDeviation="5" result="e"/><feFlood flood-color="#fff" flood-opacity="0.502"/><feComposite operator="in" in2="e"/><feComposite in="SourceGraphic"/></filter><filter id="f" x="70.709" y="150.704" width="57.341" height="62.229" filterUnits="userSpaceOnUse"><feOffset input="SourceAlpha"/><feGaussianBlur stdDeviation="5" result="g"/><feFlood flood-color="#fff" flood-opacity="0.502"/><feComposite operator="in" in2="g"/><feComposite in="SourceGraphic"/></filter><filter id="h" x="103.336" y="150.704" width="56.539" height="62.229" filterUnits="userSpaceOnUse"><feOffset input="SourceAlpha"/><feGaussianBlur stdDeviation="5" result="i"/><feFlood flood-color="#fff" flood-opacity="0.502"/><feComposite operator="in" in2="i"/><feComposite in="SourceGraphic"/></filter><filter id="j" x="138.546" y="150.704" width="51.623" height="62.229" filterUnits="userSpaceOnUse"><feOffset input="SourceAlpha"/><feGaussianBlur stdDeviation="5" result="k"/><feFlood flood-color="#fff" flood-opacity="0.502"/><feComposite operator="in" in2="k"/><feComposite in="SourceGraphic"/></filter><filter id="l" x="167.748" y="150.704" width="64.952" height="62.229" filterUnits="userSpaceOnUse"><feOffset input="SourceAlpha"/><feGaussianBlur stdDeviation="5" result="m"/><feFlood flood-color="#fff" flood-opacity="0.502"/><feComposite operator="in" in2="m"/><feComposite in="SourceGraphic"/></filter><filter id="n" x="0" y="150.704" width="64.952" height="62.229" filterUnits="userSpaceOnUse"><feOffset input="SourceAlpha"/><feGaussianBlur stdDeviation="5" result="o"/><feFlood flood-color="#fff" flood-opacity="0.502"/><feComposite operator="in" in2="o"/><feComposite in="SourceGraphic"/></filter><filter id="p" x="239.98" y="150.704" width="57.341" height="62.229" filterUnits="userSpaceOnUse"><feOffset input="SourceAlpha"/><feGaussianBlur stdDeviation="5" result="q"/><feFlood flood-color="#fff" flood-opacity="0.502"/><feComposite operator="in" in2="q"/><feComposite in="SourceGraphic"/></filter><filter id="r" x="272.059" y="150.704" width="33.605" height="62.229" filterUnits="userSpaceOnUse"><feOffset input="SourceAlpha"/><feGaussianBlur stdDeviation="5" result="s"/><feFlood flood-color="#fff" flood-opacity="0.502"/><feComposite operator="in" in2="s"/><feComposite in="SourceGraphic"/></filter><filter id="t" x="282.606" y="150.603" width="59.394" height="62.435" filterUnits="userSpaceOnUse"><feOffset input="SourceAlpha"/><feGaussianBlur stdDeviation="5" result="u"/><feFlood flood-color="#fff" flood-opacity="0.502"/><feComposite operator="in" in2="u"/><feComposite in="SourceGraphic"/></filter><filter id="v" x="184.438" y="205.149" width="51.623" height="62.229" filterUnits="userSpaceOnUse"><feOffset input="SourceAlpha"/><feGaussianBlur stdDeviation="5" result="w"/><feFlood flood-color="#fff" flood-opacity="0.502"/><feComposite operator="in" in2="w"/><feComposite in="SourceGraphic"/></filter><filter id="x" x="78.626" y="205.149" width="58.842" height="62.229" filterUnits="userSpaceOnUse"><feOffset input="SourceAlpha"/><feGaussianBlur stdDeviation="5" result="y"/><feFlood flood-color="#fff" flood-opacity="0.502"/><feComposite operator="in" in2="y"/><feComposite in="SourceGraphic"/></filter><filter id="z" x="114.476" y="205.048" width="62.909" height="62.671" filterUnits="userSpaceOnUse"><feOffset input="SourceAlpha"/><feGaussianBlur stdDeviation="5" result="aa"/><feFlood flood-color="#fff" flood-opacity="0.502"/><feComposite operator="in" in2="aa"/><feComposite in="SourceGraphic"/></filter><filter id="ab" x="152.129" y="205.149" width="57.34" height="62.229" filterUnits="userSpaceOnUse"><feOffset input="SourceAlpha"/><feGaussianBlur stdDeviation="5" result="ac"/><feFlood flood-color="#fff" flood-opacity="0.502"/><feComposite operator="in" in2="ac"/><feComposite in="SourceGraphic"/></filter><filter id="ad" x="212.218" y="205.048" width="51.156" height="62.435" filterUnits="userSpaceOnUse"><feOffset input="SourceAlpha"/><feGaussianBlur stdDeviation="5" result="ae"/><feFlood flood-color="#fff" flood-opacity="0.502"/><feComposite operator="in" in2="ae"/><feComposite in="SourceGraphic"/></filter></defs><g transform="translate(-25.732 -92.984)"><g transform="translate(70.23 92.984)"><g transform="translate(0 59.669)"><path d="M229.241,238.888l53.679,27.456q2.182-.43,4.306-.886l-55.469-27.139Q230.558,238.627,229.241,238.888Zm-13.012-46.8c-69.865,0-126.5,17.971-126.5,40.14s56.637,40.14,126.5,40.14a382.486,382.486,0,0,0,39.571-2.006l-31.852-30.695a74.673,74.673,0,0,1-7.72.393c-13.632,0-24.683-3.507-24.683-7.833S202.6,224.4,216.229,224.4s24.683,3.507,24.683,7.832c0,2.161-2.758,4.117-7.219,5.535l64.823,24.951c27.063-7.362,44.213-18.287,44.213-30.486C342.731,210.063,286.094,192.092,216.229,192.092Z" transform="translate(-89.728 -192.092)" fill="url(#a)"/></g><line x1="3.641" transform="translate(152.449 33.423)"/><path d="M31.243-.5C39.644-.5,47.548.652,53.5,2.743c6.117,2.149,9.485,5.073,9.485,8.234s-3.369,6.085-9.485,8.234c-5.953,2.092-13.858,3.243-22.258,3.243S14.938,21.3,8.985,19.211C2.869,17.062-.5,14.138-.5,10.977S2.869,4.893,8.985,2.743C14.938.652,22.843-.5,31.243-.5Zm0,21.955c8.29,0,16.077-1.132,21.927-3.187a21.456,21.456,0,0,0,6.542-3.4c1.509-1.254,2.275-2.562,2.275-3.888s-.765-2.634-2.275-3.888a21.456,21.456,0,0,0-6.542-3.4C47.321,1.632,39.534.5,31.243.5S15.166,1.632,9.317,3.687a21.456,21.456,0,0,0-6.542,3.4C1.265,8.343.5,9.651.5,10.977s.765,2.634,2.275,3.888a21.456,21.456,0,0,0,6.542,3.4C15.166,20.323,22.953,21.455,31.243,21.455Z" transform="translate(95.258 88.832)" fill="#fff"/><g transform="translate(62.889)"><path d="M227.373,126.138v-.655H215.846l.784-2.62h11.75q4.924-15.72,11.807-22.774,6.882-7.1,15.723-7.1a15.69,15.69,0,0,1,8.281,2.167A6.586,6.586,0,0,1,267.773,101a5.45,5.45,0,0,1-1.567,4.333,6.4,6.4,0,0,1-4.42,1.361,5.8,5.8,0,0,1-4.2-1.361,5.006,5.006,0,0,1-1.343-3.678,4.52,4.52,0,0,1,1.4-3.175,6.8,6.8,0,0,0,1.455-1.763q0-1.108-3.86-1.109-8.114,0-11.36,12.5l-3.86,14.763h10.743l-.783,2.62h-10.52L234.647,146.8q-4.365,17.887-11.694,29.223-7.275,11.286-18.969,11.286a11.741,11.741,0,0,1-6.827-1.965,6.145,6.145,0,0,1-2.8-5.19,4.549,4.549,0,0,1,1.567-3.527,5.614,5.614,0,0,1,3.8-1.411,6.473,6.473,0,0,1,3.972,1.058,3.644,3.644,0,0,1,1.4,3.174,4.26,4.26,0,0,1-.672,2.418,3.237,3.237,0,0,0-.671,1.512q0,1.309,2.07,1.31a8.578,8.578,0,0,0,7.218-3.98q2.855-3.982,5.484-15.872Z" transform="translate(-194.359 -92.984)" fill="#303332"/><g transform="translate(49.983 29.636)"><path d="M288.639,210.7c-6.532-5.417-11.26-14.162-11.26-26.235,0-18.651,10.744-32.89,27.161-42.254l.516.774c-11.775,10.292-20.285,27.55-20.285,46.587,0,9.364,2.063,15.942,4.641,20.586Z" transform="translate(-277.379 -142.209)" fill="#303332"/><path d="M325.08,198.341l7.177-7.369a2.286,2.286,0,0,0,.8-1.588l-1.595-6.915q-1.679-6.839-3.022-6.839-2.518,0-7.848,8.011L318.7,183a36.546,36.546,0,0,1,6.631-8.163,10.648,10.648,0,0,1,7.092-2.683,6.585,6.585,0,0,1,4.617,1.436q1.594,1.4,2.476,5.215l.755,3.1,5.623-6.273a11.292,11.292,0,0,1,2.9-2.608,6.086,6.086,0,0,1,3.064-.869,4.625,4.625,0,0,1,3.021.869,3.159,3.159,0,0,1,1.091,2.683,3.244,3.244,0,0,1-1.091,2.381,3.483,3.483,0,0,1-2.518,1.02,4.884,4.884,0,0,1-2.728-.794,3.947,3.947,0,0,0-1.721-.831q-1.3,0-4.155,3.212-2.811,3.213-2.812,4.119a11.841,11.841,0,0,0,.336,1.851l2.182,9.221q1.174,4.762,3.021,4.762,1.552,0,3.609-2.381a28.672,28.672,0,0,0,3.777-5.668l1.679.831a26.019,26.019,0,0,1-6.127,8.5,11.063,11.063,0,0,1-7.26,2.645,6.333,6.333,0,0,1-6.086-3.892q-1.132-2.23-2.266-8.767l-7.386,8.956a11.694,11.694,0,0,1-3.022,2.683,6.542,6.542,0,0,1-3.525,1.02,4.393,4.393,0,0,1-2.98-1.1,3.51,3.51,0,0,1-1.217-2.646,3.426,3.426,0,0,1,1.049-2.494,3.659,3.659,0,0,1,2.644-1.058,3.233,3.233,0,0,1,2.476,1.1q1.048,1.058,1.427,1.058a1.581,1.581,0,0,0,1.007-.415Q324.787,198.606,325.08,198.341Z" transform="translate(-292.621 -154.125)" fill="#303332"/><path d="M396.436,142.209c6.532,5.417,11.259,14.162,11.259,26.235,0,18.651-10.744,32.89-27.16,42.254l-.515-.774C391.8,199.631,400.3,182.373,400.3,163.336c0-9.364-2.063-15.942-4.641-20.585Z" transform="translate(-318.224 -142.209)" fill="#303332"/></g></g></g><g transform="translate(40.732 258.587)"><g transform="matrix(1, 0, 0, 1, -15, -165.6)" filter="url(#b)"><path d="M108.788,401.5l13.047-28.588L134.9,401.5h4.006l-15.223-32.229h-3.505L104.86,401.5h3.928" transform="translate(-51.25 -203.57)" fill="#303332"/></g><g transform="matrix(1, 0, 0, 1, -15, -165.6)" filter="url(#d)"><path d="M387.6,401.5l13.047-28.588,13.07,28.588h4.006L402.5,369.275H399L383.674,401.5H387.6" transform="translate(-162.34 -203.57)" fill="#303332"/></g><g transform="matrix(1, 0, 0, 1, -15, -165.6)" filter="url(#f)"><path d="M173.729,401.5h-3.605V372.188H158.256v-2.913H185.6v2.913H173.729Z" transform="translate(-72.55 -203.57)" fill="#303332"/></g><g transform="matrix(1, 0, 0, 1, -15, -165.6)" filter="url(#h)"><path d="M212.483,369.275h3.606V383.25h19.328V369.275h3.605V401.5h-3.605V386.255H216.089V401.5h-3.606Z" transform="translate(-94.15 -203.57)" fill="#303332"/></g><g transform="matrix(1, 0, 0, 1, -15, -165.6)" filter="url(#j)"><path d="M271,372.188v-2.913h21.556v2.913Zm21.623,26.4V401.5H271v-2.913Zm0-14.773v2.914H271v-2.914Z" transform="translate(-117.46 -203.57)" fill="#303332"/></g><g transform="matrix(1, 0, 0, 1, -15, -165.6)" filter="url(#l)"><path d="M337.072,395.35h.05l11.868-26.075H354.5V401.5h-3.605v-28h-.1L337.974,399.9h-1.9l-12.819-26.393h-.1v28h-3.606V369.275h5.508Z" transform="translate(-136.8 -203.57)" fill="#303332"/></g><g transform="matrix(1, 0, 0, 1, -15, -165.6)" filter="url(#n)"><path d="M58.258,395.35h.05l11.867-26.075h5.509V401.5H72.078v-28h-.1L59.159,399.9h-1.9L44.437,373.509h-.1v28H40.732V369.275H46.24Z" transform="translate(-25.73 -203.57)" fill="#303332"/></g><g transform="matrix(1, 0, 0, 1, -15, -165.6)" filter="url(#p)"><path d="M455.118,401.5h-3.605V372.188H439.645v-2.913h27.341v2.913H455.118Z" transform="translate(-184.67 -203.57)" fill="#303332"/></g><g transform="matrix(1, 0, 0, 1, -15, -165.6)" filter="url(#r)"><path d="M496.533,401.5h-3.6V369.275h3.6Z" transform="translate(-205.87 -203.57)" fill="#303332"/></g><g transform="matrix(1, 0, 0, 1, -15, -165.6)" filter="url(#t)"><path d="M539.84,395.744a13.106,13.106,0,0,1-4.752,4.071,15.883,15.883,0,0,1-3.43,1.263,17.09,17.09,0,0,1-4.1.465,18.863,18.863,0,0,1-6.862-1.22,16.332,16.332,0,0,1-5.425-3.379,15.318,15.318,0,0,1-3.547-5.122,16.256,16.256,0,0,1-1.275-6.5,16.024,16.024,0,0,1,1.3-6.5,15.477,15.477,0,0,1,3.593-5.122,16.679,16.679,0,0,1,5.424-3.378,18.536,18.536,0,0,1,6.792-1.221,17.779,17.779,0,0,1,3.547.354,17.434,17.434,0,0,1,3.269,1A14.116,14.116,0,0,1,537.151,372a9.327,9.327,0,0,1,2.086,2.033l-2.782,1.918a8.019,8.019,0,0,0-1.368-1.482,9.4,9.4,0,0,0-2.016-1.308,13.158,13.158,0,0,0-2.527-.915,11.9,11.9,0,0,0-2.944-.349,14.365,14.365,0,0,0-5.726,1.087,12.873,12.873,0,0,0-4.289,2.933A12.66,12.66,0,0,0,514.9,380.2a14.274,14.274,0,0,0-.927,5.127,13.97,13.97,0,0,0,.95,5.128,12.725,12.725,0,0,0,7,7.213,14.232,14.232,0,0,0,5.68,1.087,13.548,13.548,0,0,0,5.378-1.09,10.044,10.044,0,0,0,4.265-3.488Z" transform="translate(-212.84 -203.5)" fill="#303332"/></g><g transform="translate(78.626 54.445)"><g transform="matrix(1, 0, 0, 1, -93.63, -220.05)" filter="url(#v)"><path d="M347.235,462.62v-2.913H368.79v2.913Zm21.623,26.4v2.913H347.235v-2.913Zm0-14.773v2.914H347.235v-2.914Z" transform="translate(-147.8 -239.56)" fill="#303332"/></g><g transform="matrix(1, 0, 0, 1, -93.63, -220.05)" filter="url(#x)"><path d="M196.621,487.157h.1v-27.45h3.605v32.229H195.82l-20.631-27.723h-.1v27.723h-3.605V459.707h4.506Z" transform="translate(-77.86 -239.56)" fill="#303332"/></g><g transform="matrix(1, 0, 0, 1, -93.63, -220.05)" filter="url(#z)"><path d="M263.939,475.758a16.568,16.568,0,0,1-1.249,6.495,15.471,15.471,0,0,1-3.456,5.122,15.952,15.952,0,0,1-5.217,3.379,18.1,18.1,0,0,1-13.065,0,15.952,15.952,0,0,1-5.217-3.379,15.462,15.462,0,0,1-3.456-5.122,17.52,17.52,0,0,1,0-12.991,15.48,15.48,0,0,1,3.456-5.122,15.958,15.958,0,0,1,5.217-3.378,18.088,18.088,0,0,1,13.065,0,15.958,15.958,0,0,1,5.217,3.378,15.489,15.489,0,0,1,3.456,5.122A16.576,16.576,0,0,1,263.939,475.758Zm-3.389.022a14.843,14.843,0,0,0-.892-5.137,12.786,12.786,0,0,0-2.586-4.286,12.383,12.383,0,0,0-4.125-2.938,14.249,14.249,0,0,0-10.924,0,12.362,12.362,0,0,0-4.125,2.938,12.768,12.768,0,0,0-2.586,4.286,15.229,15.229,0,0,0,0,10.272,12.322,12.322,0,0,0,6.711,7.182,14.263,14.263,0,0,0,10.924,0,12.32,12.32,0,0,0,6.712-7.182A14.829,14.829,0,0,0,260.55,475.779Zm1.168-16.071,2.061,2.06-30.443,30.443-2.06-2.06Z" transform="translate(-101.55 -239.49)" fill="#303332"/></g><g transform="matrix(1, 0, 0, 1, -93.63, -220.05)" filter="url(#ab)"><path d="M309.044,491.936h-3.605V462.62H293.571v-2.913h27.34v2.913H309.044Z" transform="translate(-126.44 -239.56)" fill="#303332"/></g><g transform="matrix(1, 0, 0, 1, -93.63, -220.05)" filter="url(#ad)"><path d="M411.45,465.294a7.946,7.946,0,0,0-2.756-2.245,8.925,8.925,0,0,0-4.063-.85,9.262,9.262,0,0,0-2.475.349,7.418,7.418,0,0,0-2.289,1.068,5.613,5.613,0,0,0-1.657,1.81,5.042,5.042,0,0,0-.63,2.571,4.5,4.5,0,0,0,.6,2.441,5.516,5.516,0,0,0,1.607,1.635,9.547,9.547,0,0,0,2.283,1.113q1.281.435,2.678.871,1.723.524,3.47,1.134a12.792,12.792,0,0,1,3.144,1.591,7.873,7.873,0,0,1,2.282,2.485,7.439,7.439,0,0,1,.885,3.815,8.009,8.009,0,0,1-.944,3.989,8.538,8.538,0,0,1-2.452,2.768,10.523,10.523,0,0,1-3.446,1.613,14.889,14.889,0,0,1-3.9.523,16.047,16.047,0,0,1-2.989-.284,14.279,14.279,0,0,1-2.849-.85,11.753,11.753,0,0,1-2.521-1.438,10.782,10.782,0,0,1-2.055-2.006l2.9-2.005a8.587,8.587,0,0,0,3.012,2.768,8.993,8.993,0,0,0,4.554,1.111,9.4,9.4,0,0,0,2.569-.37,7.425,7.425,0,0,0,2.359-1.134,6.425,6.425,0,0,0,1.728-1.875,5.477,5.477,0,0,0,0-5.275,5.824,5.824,0,0,0-1.8-1.787,11.346,11.346,0,0,0-2.569-1.2q-1.448-.481-3.036-.96-1.635-.479-3.223-1.09a11.1,11.1,0,0,1-2.849-1.591,7.553,7.553,0,0,1-2.031-2.42,8.313,8.313,0,0,1,.187-7.367,8.272,8.272,0,0,1,2.5-2.659,10.822,10.822,0,0,1,3.409-1.526,14.828,14.828,0,0,1,3.69-.479,13.51,13.51,0,0,1,5.744,1.111,9.785,9.785,0,0,1,3.6,2.638Z" transform="translate(-166.16 -239.49)" fill="#303332"/></g></g></g></g></svg>