<svg xmlns="http://www.w3.org/2000/svg" xmlns:xlink="http://www.w3.org/1999/xlink" width="1170" height="278" viewBox="0 0 1170 278"><defs><filter id="a" x="89.742" y="172.293" width="109.147" height="104.914" filterUnits="userSpaceOnUse"><feOffset input="SourceAlpha"/><feGaussianBlur stdDeviation="5" result="b"/><feFlood flood-color="#fff" flood-opacity="0.502"/><feComposite operator="in" in2="b"/><feComposite in="SourceGraphic"/></filter><filter id="c" x="480.085" y="172.293" width="109.147" height="104.914" filterUnits="userSpaceOnUse"><feOffset input="SourceAlpha"/><feGaussianBlur stdDeviation="5" result="d"/><feFlood flood-color="#fff" flood-opacity="0.502"/><feComposite operator="in" in2="d"/><feComposite in="SourceGraphic"/></filter><filter id="e" x="164.466" y="172.293" width="93.55" height="104.914" filterUnits="userSpaceOnUse"><feOffset input="SourceAlpha"/><feGaussianBlur stdDeviation="5" result="f"/><feFlood flood-color="#fff" flood-opacity="0.502"/><feComposite operator="in" in2="f"/><feComposite in="SourceGraphic"/></filter><filter id="g" x="240.434" y="172.293" width="91.688" height="104.914" filterUnits="userSpaceOnUse"><feOffset input="SourceAlpha"/><feGaussianBlur stdDeviation="5" result="h"/><feFlood flood-color="#fff" flood-opacity="0.502"/><feComposite operator="in" in2="h"/><feComposite in="SourceGraphic"/></filter><filter id="i" x="322.352" y="172.293" width="80.261" height="104.914" filterUnits="userSpaceOnUse"><feOffset input="SourceAlpha"/><feGaussianBlur stdDeviation="5" result="j"/><feFlood flood-color="#fff" flood-opacity="0.502"/><feComposite operator="in" in2="j"/><feComposite in="SourceGraphic"/></filter><filter id="k" x="1026.253" y="172.293" width="80.26" height="104.914" filterUnits="userSpaceOnUse"><feOffset input="SourceAlpha"/><feGaussianBlur stdDeviation="5" result="l"/><feFlood flood-color="#fff" flood-opacity="0.502"/><feComposite operator="in" in2="l"/><feComposite in="SourceGraphic"/></filter><filter id="m" x="390.313" y="172.293" width="111.242" height="104.914" filterUnits="userSpaceOnUse"><feOffset input="SourceAlpha"/><feGaussianBlur stdDeviation="5" result="n"/><feFlood flood-color="#fff" flood-opacity="0.502"/><feComposite operator="in" in2="n"/><feComposite in="SourceGraphic"/></filter><filter id="o" x="0" y="172.293" width="111.242" height="104.914" filterUnits="userSpaceOnUse"><feOffset input="SourceAlpha"/><feGaussianBlur stdDeviation="5" result="p"/><feFlood flood-color="#fff" flood-opacity="0.502"/><feComposite operator="in" in2="p"/><feComposite in="SourceGraphic"/></filter><filter id="q" x="558.436" y="172.293" width="93.55" height="104.914" filterUnits="userSpaceOnUse"><feOffset input="SourceAlpha"/><feGaussianBlur stdDeviation="5" result="r"/><feFlood flood-color="#fff" flood-opacity="0.502"/><feComposite operator="in" in2="r"/><feComposite in="SourceGraphic"/></filter><filter id="s" x="633.016" y="172.293" width="38.38" height="104.914" filterUnits="userSpaceOnUse"><feOffset input="SourceAlpha"/><feGaussianBlur stdDeviation="5" result="t"/><feFlood flood-color="#fff" flood-opacity="0.502"/><feComposite operator="in" in2="t"/><feComposite in="SourceGraphic"/></filter><filter id="u" x="657.55" y="172.059" width="98.323" height="105.391" filterUnits="userSpaceOnUse"><feOffset input="SourceAlpha"/><feGaussianBlur stdDeviation="5" result="v"/><feFlood flood-color="#fff" flood-opacity="0.502"/><feComposite operator="in" in2="v"/><feComposite in="SourceGraphic"/></filter><filter id="w" x="780.204" y="172.293" width="97.042" height="104.914" filterUnits="userSpaceOnUse"><feOffset input="SourceAlpha"/><feGaussianBlur stdDeviation="5" result="x"/><feFlood flood-color="#fff" flood-opacity="0.502"/><feComposite operator="in" in2="x"/><feComposite in="SourceGraphic"/></filter><filter id="y" x="863.566" y="172.059" width="106.493" height="105.941" filterUnits="userSpaceOnUse"><feOffset input="SourceAlpha"/><feGaussianBlur stdDeviation="5" result="z"/><feFlood flood-color="#fff" flood-opacity="0.502"/><feComposite operator="in" in2="z"/><feComposite in="SourceGraphic"/></filter><filter id="aa" x="951.154" y="172.293" width="93.55" height="104.914" filterUnits="userSpaceOnUse"><feOffset input="SourceAlpha"/><feGaussianBlur stdDeviation="5" result="ab"/><feFlood flood-color="#fff" flood-opacity="0.502"/><feComposite operator="in" in2="ab"/><feComposite in="SourceGraphic"/></filter><filter id="ac" x="1090.824" y="172.059" width="79.176" height="105.391" filterUnits="userSpaceOnUse"><feOffset input="SourceAlpha"/><feGaussianBlur stdDeviation="5" result="ad"/><feFlood flood-color="#fff" flood-opacity="0.502"/><feComposite operator="in" in2="ad"/><feComposite in="SourceGraphic"/></filter><linearGradient id="ae" x1="0.643" y1="1.279" x2="0.357" y2="-0.279" gradientUnits="objectBoundingBox"><stop offset="0" stop-color="#77edb7"/><stop offset="1" stop-color="#abf4ed"/></linearGradient></defs><g transform="translate(-15.181 -20.074)"><g transform="translate(30.181 207.133)"><g transform="matrix(1, 0, 0, 1, -15, -187.06)" filter="url(#a)"><path d="M129.054,282.357l30.327-66.449,30.379,66.449h9.311l-35.384-74.914H155.54l-35.616,74.914h9.13" transform="translate(-15.18 -20.15)" fill="#303332"/></g><g transform="matrix(1, 0, 0, 1, -15, -187.06)" filter="url(#c)"><path d="M519.233,282.357l30.327-66.449,30.379,66.449h9.311l-35.384-74.914h-8.147L510.1,282.357h9.13" transform="translate(-15.02 -20.15)" fill="#303332"/></g><g transform="matrix(1, 0, 0, 1, -15, -187.06)" filter="url(#e)"><path d="M230.612,282.357h-8.38V214.215H194.647v-6.772H258.2v6.772H230.612Z" transform="translate(-15.18 -20.15)" fill="#303332"/></g><g transform="matrix(1, 0, 0, 1, -15, -187.06)" filter="url(#g)"><path d="M270.534,207.443h8.38v32.483h44.928V207.443h8.38v74.914h-8.38V246.912H278.914v35.445h-8.38Z" transform="translate(-15.1 -20.15)" fill="#303332"/></g><g transform="matrix(1, 0, 0, 1, -15, -187.06)" filter="url(#i)"><path d="M352.426,214.215v-6.772h50.1v6.772Zm50.261,61.371v6.771H352.426v-6.771Zm0-34.337v6.773H352.426v-6.773Z" transform="translate(-15.07 -20.15)" fill="#303332"/></g><g transform="matrix(1, 0, 0, 1, -15, -187.06)" filter="url(#k)"><path d="M1056.072,214.215v-6.772h50.1v6.772Zm50.26,61.371v6.771h-50.26v-6.771Zm0-34.337v6.773h-50.26v-6.773Z" transform="translate(-14.82 -20.15)" fill="#303332"/></g><g transform="matrix(1, 0, 0, 1, -15, -187.06)" filter="url(#m)"><path d="M461.1,268.051h.117L488.8,207.443h12.8v74.914h-8.38V217.283h-.234l-29.8,61.349h-4.424l-29.8-61.349h-.232v65.074H420.36V207.443h12.8Z" transform="translate(-15.05 -20.15)" fill="#303332"/></g><g transform="matrix(1, 0, 0, 1, -15, -187.06)" filter="url(#o)"><path d="M70.918,268.051h.116l27.585-60.608h12.8v74.914h-8.38V217.283h-.234l-29.8,61.349H68.589L38.794,217.283h-.233v65.074h-8.38V207.443h12.8Z" transform="translate(-15.18 -20.15)" fill="#303332"/></g><g transform="matrix(1, 0, 0, 1, -15, -187.06)" filter="url(#q)"><path d="M624.4,282.357h-8.381V214.215H588.429v-6.772h63.55v6.772H624.4Z" transform="translate(-14.99 -20.15)" fill="#303332"/></g><g transform="matrix(1, 0, 0, 1, -15, -187.06)" filter="url(#s)"><path d="M671.374,282.357h-8.38V207.443h8.38Z" transform="translate(-14.98 -20.15)" fill="#303332"/></g><g transform="matrix(1, 0, 0, 1, -15, -187.06)" filter="url(#u)"><path d="M755.832,269.123a30.482,30.482,0,0,1-11.045,9.463,36.993,36.993,0,0,1-7.974,2.934,39.783,39.783,0,0,1-9.538,1.08,43.83,43.83,0,0,1-15.949-2.837,37.958,37.958,0,0,1-12.609-7.854A35.633,35.633,0,0,1,690.473,260a37.789,37.789,0,0,1-2.964-15.1,37.23,37.23,0,0,1,3.018-15.1,35.94,35.94,0,0,1,8.352-11.907,38.745,38.745,0,0,1,12.608-7.852,43.078,43.078,0,0,1,15.788-2.838,41.334,41.334,0,0,1,8.244.823,40.586,40.586,0,0,1,7.6,2.317,32.792,32.792,0,0,1,6.466,3.584,21.674,21.674,0,0,1,4.85,4.727l-6.467,4.458a18.6,18.6,0,0,0-3.178-3.445,21.83,21.83,0,0,0-4.688-3.04,30.627,30.627,0,0,0-5.873-2.128,27.66,27.66,0,0,0-6.843-.811,33.4,33.4,0,0,0-13.309,2.526,29.913,29.913,0,0,0-9.968,6.817,29.434,29.434,0,0,0-6.251,9.95A33.181,33.181,0,0,0,695.7,244.9a32.464,32.464,0,0,0,2.209,11.918,29.569,29.569,0,0,0,16.272,16.765,33.083,33.083,0,0,0,13.2,2.526,31.472,31.472,0,0,0,12.5-2.533,23.336,23.336,0,0,0,9.914-8.107Z" transform="translate(-14.96 -20.15)" fill="#303332"/></g><g transform="matrix(1, 0, 0, 1, -15, -187.06)" filter="url(#w)"><path d="M868.551,271.247h.233v-63.8h8.38v74.914H866.689l-47.954-64.439H818.5v64.439h-8.381V207.443H820.6Z" transform="translate(-14.92 -20.15)" fill="#303332"/></g><g transform="matrix(1, 0, 0, 1, -15, -187.06)" filter="url(#y)"><path d="M969.946,244.9a38.521,38.521,0,0,1-2.9,15.1,35.973,35.973,0,0,1-8.033,11.906,37.063,37.063,0,0,1-12.127,7.854,42.054,42.054,0,0,1-30.369,0,37.064,37.064,0,0,1-12.127-7.854A35.942,35.942,0,0,1,896.355,260a40.728,40.728,0,0,1,0-30.2,35.977,35.977,0,0,1,8.033-11.907,37.091,37.091,0,0,1,12.127-7.852,42.041,42.041,0,0,1,30.369,0,37.09,37.09,0,0,1,12.127,7.852,36.008,36.008,0,0,1,8.033,11.907A38.529,38.529,0,0,1,969.946,244.9Zm-7.878.05A34.5,34.5,0,0,0,960,233.016a29.74,29.74,0,0,0-6.011-9.963,28.787,28.787,0,0,0-9.589-6.828,33.111,33.111,0,0,0-25.393,0,28.743,28.743,0,0,0-9.588,6.828,29.678,29.678,0,0,0-6.012,9.963,35.429,35.429,0,0,0,0,23.877A28.643,28.643,0,0,0,919,273.586a33.147,33.147,0,0,0,25.393,0A28.635,28.635,0,0,0,960,256.893,34.475,34.475,0,0,0,962.068,244.955Zm2.716-37.356,4.79,4.79L898.813,283.15l-4.79-4.789Z" transform="translate(-14.89 -20.15)" fill="#303332"/></g><g transform="matrix(1, 0, 0, 1, -15, -187.06)" filter="url(#aa)"><path d="M1016.939,282.357h-8.38V214.215H980.973v-6.772h63.55v6.772h-27.584Z" transform="translate(-14.82 -20.15)" fill="#303332"/></g><g transform="matrix(1, 0, 0, 1, -15, -187.06)" filter="url(#ac)"><path d="M1162.655,220.585a18.473,18.473,0,0,0-6.406-5.219,20.733,20.733,0,0,0-9.443-1.976,21.537,21.537,0,0,0-5.754.811,17.232,17.232,0,0,0-5.32,2.482,13.062,13.062,0,0,0-3.854,4.206,11.735,11.735,0,0,0-1.465,5.978,10.452,10.452,0,0,0,1.406,5.674,12.818,12.818,0,0,0,3.735,3.8,22.172,22.172,0,0,0,5.307,2.585q2.976,1.014,6.224,2.027,4.005,1.217,8.064,2.634a29.771,29.771,0,0,1,7.309,3.7,18.274,18.274,0,0,1,5.3,5.776,17.283,17.283,0,0,1,2.058,8.867,18.619,18.619,0,0,1-2.195,9.271,19.827,19.827,0,0,1-5.7,6.434,24.44,24.44,0,0,1-8.01,3.75,34.639,34.639,0,0,1-9.064,1.216,37.222,37.222,0,0,1-6.949-.66,33.127,33.127,0,0,1-6.621-1.975,27.3,27.3,0,0,1-5.862-3.344,25.029,25.029,0,0,1-4.777-4.66l6.731-4.663a19.955,19.955,0,0,0,7,6.435,20.9,20.9,0,0,0,10.584,2.584,21.855,21.855,0,0,0,5.971-.861,17.249,17.249,0,0,0,5.482-2.635,14.937,14.937,0,0,0,4.017-4.357,12.73,12.73,0,0,0,0-12.261,13.547,13.547,0,0,0-4.181-4.155,26.4,26.4,0,0,0-5.97-2.786q-3.367-1.114-7.056-2.23-3.8-1.113-7.491-2.533a25.7,25.7,0,0,1-6.622-3.7,17.526,17.526,0,0,1-4.722-5.624,19.313,19.313,0,0,1,.435-17.124,19.245,19.245,0,0,1,5.807-6.182,25.123,25.123,0,0,1,7.925-3.546,34.384,34.384,0,0,1,8.576-1.115,31.4,31.4,0,0,1,13.353,2.584,22.741,22.741,0,0,1,8.358,6.13Z" transform="translate(-14.82 -20.15)" fill="#303332"/></g></g><g transform="translate(457.192 20.074)"><g transform="translate(0 67.394)"><path d="M600,87.468c-78.971,0-142.989,20.3-142.989,45.338S521.029,178.144,600,178.144a432.917,432.917,0,0,0,44.729-2.265l-36-34.67a84.258,84.258,0,0,1-8.726.444c-15.409,0-27.9-3.961-27.9-8.847s12.491-8.846,27.9-8.846,27.9,3.96,27.9,8.846c0,2.441-3.118,4.651-8.159,6.252l73.272,28.181c30.59-8.315,49.976-20.655,49.976-34.433C742.989,107.767,678.971,87.468,600,87.468Zm14.707,52.855,60.676,31.013q2.466-.486,4.867-1l-62.7-30.653C616.648,139.914,615.7,140.128,614.707,140.323Z" transform="translate(-457.011 -87.468)" fill="url(#ae)"/></g><line x1="4.112" transform="translate(172.321 37.75)"/><path d="M35.289-.5c9.481,0,18.4,1.3,25.119,3.66,6.881,2.418,10.67,5.7,10.67,9.239s-3.789,6.821-10.67,9.239C53.691,24,44.77,25.3,35.289,25.3s-18.4-1.3-25.119-3.66C3.289,19.22-.5,15.939-.5,12.4S3.289,5.577,10.17,3.16C16.887.8,25.808-.5,35.289-.5Zm0,24.8c9.371,0,18.174-1.28,24.787-3.6a24.3,24.3,0,0,0,7.409-3.854c1.72-1.429,2.593-2.923,2.593-4.442s-.872-3.012-2.593-4.442A24.3,24.3,0,0,0,60.076,4.1C53.463,1.78,44.66.5,35.289.5S17.115,1.78,10.5,4.1A24.3,24.3,0,0,0,3.093,7.957C1.372,9.386.5,10.881.5,12.4s.872,3.012,2.593,4.442A24.3,24.3,0,0,0,10.5,20.694C17.115,23.018,25.918,24.3,35.289,24.3Z" transform="translate(107.7 100.333)" fill="#fff"/><g transform="translate(71.151)"><path d="M565.451,57.52v-.74H552.432l.884-2.959h13.273Q572.15,36.066,579.924,28.1q7.773-8.025,17.76-8.024a17.715,17.715,0,0,1,9.353,2.447q4.044,2.447,4.045,6.6,0,3.359-1.769,4.895a7.237,7.237,0,0,1-4.994,1.536,6.551,6.551,0,0,1-4.74-1.536,5.658,5.658,0,0,1-1.516-4.155,5.1,5.1,0,0,1,1.58-3.585,7.708,7.708,0,0,0,1.643-1.992q0-1.251-4.361-1.252-9.165,0-12.83,14.113l-4.361,16.675h12.135l-.885,2.959H579.1l-5.436,24.073q-4.929,20.2-13.209,33.008-8.217,12.747-21.426,12.748a13.257,13.257,0,0,1-7.71-2.22,6.939,6.939,0,0,1-3.16-5.862,5.138,5.138,0,0,1,1.77-3.983,6.34,6.34,0,0,1,4.3-1.594,7.315,7.315,0,0,1,4.488,1.2,4.114,4.114,0,0,1,1.58,3.585,4.811,4.811,0,0,1-.759,2.731,3.648,3.648,0,0,0-.758,1.708q0,1.479,2.338,1.479a9.69,9.69,0,0,0,8.153-4.5q3.223-4.5,6.194-17.926Z" transform="translate(-528.162 -20.074)" fill="#303332"/><g transform="translate(56.453 33.467)"><path d="M597.332,130.906c-7.378-6.119-12.717-16-12.717-29.635,0-21.067,12.135-37.152,30.676-47.73l.583.875c-13.3,11.626-22.91,31.12-22.91,52.625,0,10.577,2.33,18.008,5.242,23.253Z" transform="translate(-584.615 -53.541)" fill="#303332"/><path d="M621.278,103.488l8.106-8.322a2.585,2.585,0,0,0,.9-1.793l-1.8-7.811q-1.9-7.725-3.413-7.726-2.844,0-8.864,9.049l-2.133-.725a41.222,41.222,0,0,1,7.49-9.22,12.025,12.025,0,0,1,8.01-3.03,7.436,7.436,0,0,1,5.214,1.622q1.8,1.578,2.8,5.89l.854,3.5,6.351-7.086a12.76,12.76,0,0,1,3.271-2.945,6.872,6.872,0,0,1,3.46-.981,5.226,5.226,0,0,1,3.413.981,3.571,3.571,0,0,1,1.232,3.031,3.666,3.666,0,0,1-1.232,2.689,3.937,3.937,0,0,1-2.844,1.152,5.521,5.521,0,0,1-3.081-.9,4.458,4.458,0,0,0-1.944-.939q-1.47,0-4.693,3.628-3.175,3.628-3.176,4.652a13.382,13.382,0,0,0,.38,2.092l2.465,10.414q1.326,5.378,3.412,5.378,1.753,0,4.077-2.689a32.428,32.428,0,0,0,4.266-6.4l1.9.939q-3.27,6.573-6.92,9.6a12.494,12.494,0,0,1-8.2,2.988,7.153,7.153,0,0,1-6.873-4.4q-1.28-2.519-2.559-9.9l-8.343,10.116a13.216,13.216,0,0,1-3.413,3.031,7.4,7.4,0,0,1-3.982,1.152,4.959,4.959,0,0,1-3.365-1.238,3.963,3.963,0,0,1-1.375-2.987,3.871,3.871,0,0,1,1.186-2.818,4.132,4.132,0,0,1,2.986-1.195,3.649,3.649,0,0,1,2.8,1.238q1.185,1.2,1.612,1.195a1.793,1.793,0,0,0,1.138-.469Q620.947,103.787,621.278,103.488Z" transform="translate(-584.615 -53.541)" fill="#303332"/><path d="M672.954,53.541c7.378,6.12,12.717,16,12.717,29.635,0,21.068-12.135,37.152-30.676,47.73l-.583-.874c13.3-11.627,22.91-31.121,22.91-52.626,0-10.577-2.33-18.008-5.242-23.253Z" transform="translate(-584.615 -53.541)" fill="#303332"/></g></g></g></g></svg>